<svg version="1.1" id="Layer_1" xmlns="http://www.w3.org/2000/svg" xmlns:xlink="http://www.w3.org/1999/xlink" x="0px" y="0px"
	 width="100%" viewBox="0 0 500 500" enable-background="new 0 0 500 500" xml:space="preserve">
<path fill="#FFFFFF" opacity="1.000000" stroke="none" 
	d="
M246.000000,501.000000 
	C165.333359,501.000000 85.166656,500.972046 5.000206,501.096069 
	C1.575966,501.101379 0.903036,500.423828 0.905301,497.000000 
	C1.013779,333.000092 1.013772,169.000122 0.905334,5.000239 
	C0.903070,1.576922 1.575817,0.903022 4.999884,0.905287 
	C168.999771,1.013774 332.999725,1.013761 496.999634,0.905353 
	C500.422668,0.903090 501.096985,1.575443 501.094727,4.999764 
	C500.986206,168.999649 500.986237,332.999603 501.094604,496.999512 
	C501.096893,500.422272 500.425476,501.101044 497.000275,501.096008 
	C413.500305,500.973083 330.000153,501.000000 246.000000,501.000000 
z"/>
<path fill="#EFEEED" opacity="1.000000" stroke="none" 
	d="
M438.547485,251.666626 
	C420.384430,277.437744 402.315552,302.852570 384.451385,328.410492 
	C382.616119,331.036163 380.539825,331.015137 378.047699,331.014801 
	C334.727081,331.009399 291.406464,331.010956 248.085861,331.010986 
	C244.253647,331.010986 240.398254,331.274933 236.595398,330.940796 
	C232.332352,330.566223 230.488480,331.769012 230.911560,336.388824 
	C231.320129,340.850067 230.722321,345.400208 231.079300,349.870392 
	C231.424332,354.191010 229.694931,355.108704 225.673523,355.092163 
	C191.184235,354.950439 156.694122,355.010956 122.204247,355.010956 
	C107.042030,355.010956 91.878387,354.898041 76.718613,355.090424 
	C72.965485,355.138031 71.918968,353.986938 71.924660,350.268799 
	C72.025879,284.121704 72.022896,217.974411 71.930290,151.827286 
	C71.925262,148.234619 72.745361,146.900162 76.621696,146.909546 
	C126.606728,147.030716 176.592209,147.022217 226.577332,146.921631 
	C230.146957,146.914429 231.214020,148.105484 231.060028,151.530014 
	C230.828262,156.684723 231.137909,161.862610 230.949738,167.020859 
	C230.837799,170.089478 231.965546,171.079926 234.994247,171.040588 
	C245.489380,170.904221 255.987396,170.989182 266.484314,170.989227 
	C303.640076,170.989441 340.795807,170.988388 377.951569,170.991562 
	C380.413910,170.991776 382.546051,170.858459 384.399506,173.508698 
	C401.413635,197.836792 418.642761,222.014481 435.778290,246.257858 
	C436.904419,247.851135 438.373749,249.284164 438.547485,251.666626 
z"/>
</svg>