<?xml version="1.0" standalone="no"?>
<!DOCTYPE svg PUBLIC "-//W3C//DTD SVG 20010904//EN"
 "http://www.w3.org/TR/2001/REC-SVG-20010904/DTD/svg10.dtd">
<svg version="1.0" xmlns="http://www.w3.org/2000/svg"
 width="144.000000pt" height="144.000000pt" viewBox="0 0 144.000000 144.000000"
 preserveAspectRatio="xMidYMid meet">

<g transform="translate(0.000000,144.000000) scale(0.100000,-0.100000)"
fill="#000000" stroke="none">
<path d="M1036 1198 c-9 -12 -16 -29 -16 -37 0 -8 -7 -41 -16 -73 l-17 -58
-208 0 c-154 0 -209 3 -209 12 0 6 8 39 17 71 16 60 16 60 -6 78 -27 22 -57
11 -70 -24 -5 -12 -61 -220 -126 -461 l-118 -440 22 -17 c45 -36 65 -10 101
129 l11 42 211 0 210 0 -6 -22 c-33 -125 -32 -151 4 -161 34 -9 56 23 76 107
l18 76 53 0 53 0 0 -71 c0 -97 24 -134 71 -109 18 10 19 27 19 485 0 459 -1
475 -19 485 -28 15 -38 13 -55 -12z m-81 -290 c-4 -18 -15 -58 -24 -88 l-17
-55 -208 -3 -209 -2 6 32 c3 18 12 59 22 91 l16 57 211 0 210 0 -7 -32z m62
-140 c-3 -8 -6 -5 -6 6 -1 11 2 17 5 13 3 -3 4 -12 1 -19z m-127 -95 c0 -5 -4
-24 -9 -43 -6 -19 -15 -54 -21 -77 l-11 -43 -211 0 -210 0 6 30 c3 17 13 55
22 85 l15 55 210 0 c115 0 209 -3 209 -7z m130 -78 l0 -85 -41 0 c-33 0 -40 3
-35 15 3 9 13 44 22 78 19 73 21 77 40 77 11 0 14 -18 14 -85z"/>
</g>
</svg>
