<?xml version="1.0" encoding="utf-8"?>
<!-- Generator: Adobe Illustrator 27.9.0, SVG Export Plug-In . SVG Version: 6.00 Build 0)  -->
<svg version="1.1" id="Layer_1" xmlns="http://www.w3.org/2000/svg" xmlns:xlink="http://www.w3.org/1999/xlink" x="0px" y="0px"
	 viewBox="0 0 400 400" style="enable-background:new 0 0 400 400;" xml:space="preserve">
<style type="text/css">
	.st0{fill:#573E3C;}
</style>
<path class="st0" d="M324.77,366.85L324.77,366.85c-7.02,0-12.71-5.69-12.71-12.71V45.87c0-7.02,5.69-12.71,12.71-12.71h0
	c7.02,0,12.71,5.69,12.71,12.71v308.27C337.49,361.16,331.8,366.85,324.77,366.85z"/>
<path class="st0" d="M228.1,367.32L228.1,367.32c-6.73-2.02-10.54-9.11-8.52-15.83l92.85-309.27c2.02-6.73,9.11-10.54,15.83-8.52v0
	c6.73,2.02,10.54,9.11,8.52,15.83L243.93,358.8C241.91,365.53,234.82,369.34,228.1,367.32z"/>
<path class="st0" d="M49.72,366.31L49.72,366.31c-6.73-2.02-10.54-9.11-8.52-15.83L134.05,41.2c2.02-6.73,9.11-10.54,15.83-8.52l0,0
	c6.73,2.02,10.54,9.11,8.52,15.83L65.56,357.79C63.54,364.51,56.45,368.33,49.72,366.31z"/>
<rect x="206.32" y="24.85" transform="matrix(3.186677e-11 1 -1 3.186677e-11 349.6228 -88.4471)" class="st0" width="25.43" height="211.48"/>
<rect x="191.51" y="99.7" transform="matrix(3.422755e-11 1 -1 3.422755e-11 417.4415 9.0019)" class="st0" width="25.43" height="227.05"/>
<rect x="182.25" y="163.74" transform="matrix(3.916316e-11 1 -1 3.916316e-11 488.512 98.5764)" class="st0" width="25.43" height="259.61"/>
</svg>
